/vscmnt/brussel_pixiu_data/_data_brussel/112/vsc11236/PredSimResults/SUBJ10mtu3D/worker3.mot
version=1
nRows=9
nColumns=50
inDegrees=yes
endheader
                time	         pelvis_tilt	         pelvis_list	     pelvis_rotation	           pelvis_tx	           pelvis_ty	           pelvis_tz	       hip_flexion_r	     hip_adduction_r	      hip_rotation_r	        knee_angle_r	       ankle_angle_r	         mtp_angle_r	       hip_flexion_l	     hip_adduction_l	      hip_rotation_l	        knee_angle_l	       ankle_angle_l	         mtp_angle_l	    lumbar_extension	      lumbar_bending	     lumbar_rotation	 ercspn_r/activation	 intobl_r/activation	 extobl_r/activation	    abd_r/activation	    add_r/activation	hamstrings_r/activation	bifemsh_r/activation	glut_max_r/activation	iliopsoas_r/activation	rect_fem_r/activation	  vasti_r/activation	gastroc_r/activation	 soleus_r/activation	tib_ant_r/activation	 ercspn_l/activation	 intobl_l/activation	 extobl_l/activation	    abd_l/activation	    add_l/activation	hamstrings_l/activation	bifemsh_l/activation	glut_max_l/activation	iliopsoas_l/activation	rect_fem_l/activation	  vasti_l/activation	gastroc_l/activation	 soleus_l/activation	tib_ant_l/activation	
          0.00000000	         -4.57393360	          0.31045982	          6.21592915	          0.00000000	          0.82235442	         -0.01290800	         31.83739715	         -2.87364841	         -4.82230425	         -8.15722238	          3.29807353	          0.27230019	        -16.13534874	          0.53156774	          0.83780149	         -5.00416097	          7.71288414	         26.01652508	         -8.59413568	         -1.37272727	         -5.14276147	          0.12075899	          0.15328415	          0.01000274	          0.01000208	          0.15448753	          0.10978506	          0.27374250	          0.05862093	          0.06936146	          0.01001205	          0.01000053	          0.02488634	          0.01000081	          0.33990923	          0.11469833	          0.01000056	          0.01000119	          0.05737848	          0.01000695	          0.01075303	          0.24104613	          0.01231856	          0.29662426	          0.01000960	          0.01000079	          0.31225597	          0.21079005	          0.02187325	
          0.01091176	         -4.57294648	          0.35457127	          6.36050962	          0.01557136	          0.82102684	         -0.01263288	         31.64058443	         -2.76709282	         -4.50311491	         -9.73691065	          2.99861018	          0.25703553	        -16.33422475	          0.43158712	          0.61765963	         -6.57319773	          7.03312327	         27.66095251	         -8.40108071	         -0.98488883	         -5.49089834	          0.10217748	          0.12969769	          0.01000229	          0.01000073	          0.13071708	          0.09658784	          0.23162490	          0.10459779	          0.05868840	          0.01000162	          0.01000038	          0.02105743	          0.01182936	          0.38164175	          0.12706213	          0.01000067	          0.01000376	          0.04854927	          0.01178687	          0.01704565	          0.20395552	          0.01076391	          0.25098218	          0.01000260	          0.01000090	          0.27805146	          0.19919495	          0.01850749	
          0.02182351	         -4.56776947	          0.37509997	          6.46877911	          0.03132765	          0.81995924	         -0.01226344	         31.31050695	         -2.67494652	         -4.19102783	        -11.10364339	          2.59243035	          0.24992030	        -16.36813797	          0.30243730	          0.37091795	         -8.44421977	          6.24604476	         29.24720678	         -8.19528218	         -0.57060027	         -5.81266046	          0.11833193	          0.10974035	          0.01000242	          0.06817581	          0.13970614	          0.08173360	          0.19598465	          0.12676523	          0.04965767	          0.01000185	          0.01000049	          0.01781737	          0.01000930	          0.43569787	          0.14344554	          0.01000052	          0.01000211	          0.04107868	          0.01000847	          0.01448056	          0.17257215	          0.01000236	          0.21236334	          0.01000774	          0.01000102	          0.23526598	          0.18251463	          0.01565966	
          0.03273527	         -4.55925900	          0.39647973	          6.53840226	          0.04707950	          0.81928103	         -0.01178790	         30.95186865	         -2.58184843	         -3.96640160	        -12.40423692	          2.16522255	          0.23292626	        -16.17595292	          0.17102105	          0.09442321	        -10.69509221	          5.33726267	         30.68553266	         -7.99901714	         -0.16013130	         -6.10355522	          0.12180929	          0.09285387	          0.01000181	          0.11035387	          0.18756573	          0.06915905	          0.16582793	          0.14375603	          0.04201656	          0.01000221	          0.01000138	          0.01507600	          0.01000138	          0.46186335	          0.17746945	          0.01000047	          0.01000153	          0.03475763	          0.01001142	          0.01287335	          0.14601788	          0.01000376	          0.17968637	          0.01000476	          0.01000088	          0.19906386	          0.15516986	          0.01325007	
          0.04364703	         -4.54698249	          0.41252156	          6.57473175	          0.06270672	          0.81906885	         -0.01121259	         30.63210454	         -2.47816915	         -3.80580553	        -13.79197053	          1.91864267	          0.21782078	        -15.71382437	          0.02859267	         -0.21436410	        -13.38151969	          4.33335385	         31.81295566	         -7.82039086	          0.25022575	         -6.36525764	          0.12514983	          0.07856581	          0.01000192	          0.14391280	          0.23018792	          0.06067502	          0.14031157	          0.15403001	          0.03555125	          0.01000249	          0.01949984	          0.01275665	          0.01000444	          0.46794061	          0.20502623	          0.01000063	          0.01000142	          0.02940925	          0.07096247	          0.02913489	          0.12354979	          0.01000402	          0.15203738	          0.01000329	          0.01000074	          0.16843238	          0.13129298	          0.01121135	
          0.05455879	         -4.53181424	          0.42326844	          6.58107909	          0.07813143	          0.81937912	         -0.01055514	         30.34506004	         -2.36437167	         -3.68886271	        -15.24122687	          1.85844146	          0.20328010	        -14.94868124	         -0.12613930	         -0.57134100	        -16.53579698	          3.23832638	         32.45879377	         -7.66197921	          0.65819614	         -6.59938291	          0.12212712	          0.06647636	          0.01000191	          0.16369823	          0.26004065	          0.05825870	          0.11872171	          0.14870277	          0.03008081	          0.01000225	          0.04721728	          0.01079460	          0.01000267	          0.46135080	          0.22353276	          0.01000079	          0.01000145	          0.02488387	          0.16504790	          0.03737723	          0.10453921	          0.01000170	          0.12864283	          0.01000233	          0.01000048	          0.14251440	          0.11109002	          0.01000056	
          0.06547054	         -4.51572953	          0.43363065	          6.55781047	          0.09331788	          0.82025280	         -0.00983766	         30.01870166	         -2.23864207	         -3.59102812	        -16.61274299	          1.97323077	          0.19076654	        -13.86347555	         -0.29293221	         -0.99150695	        -20.15674479	          2.01124700	         32.49551618	         -7.52287907	          1.05735850	         -6.80548238	          0.11631221	          0.05624720	          0.01000208	          0.17452516	          0.27351023	          0.05930490	          0.10045419	          0.13396559	          0.02545215	          0.01000210	          0.06832162	          0.01000277	          0.01000396	          0.44208381	          0.22753234	          0.01000109	          0.01000155	          0.02105484	          0.22524848	          0.04589239	          0.08845440	          0.01000153	          0.10884811	          0.01000199	          0.01000036	          0.12058462	          0.09399579	          0.01000055	
          0.07638230	         -4.50064049	          0.44665366	          6.50515833	          0.10825570	          0.82166689	         -0.00907900	         29.59391527	         -2.09693632	         -3.48264137	        -17.79800976	          2.25520466	          0.18658105	        -12.46652386	         -0.47796159	         -1.46645759	        -24.17283396	          0.50583705	         31.96867246	         -7.40128297	          1.44434637	         -6.98231138	          0.10482173	          0.04759208	          0.01000215	          0.18028642	          0.27964274	          0.06404213	          0.08499775	          0.11335522	          0.02153575	          0.01000180	          0.08561878	          0.01000173	          0.01000124	          0.41195979	          0.22711443	          0.01000116	          0.01000162	          0.01781503	          0.26813191	          0.05550529	          0.07484611	          0.01000097	          0.09209933	          0.01000161	          0.01000024	          0.10202936	          0.07953197	          0.01000057	
          0.08729406	         -4.48815628	          0.46641916	          6.42173742	          0.12292830	          0.82355330	         -0.00829236	         29.03984023	         -1.94019657	         -3.34562221	        -18.73427787	          2.68759673	          0.20785114	        -10.78484546	         -0.68422894	         -1.97636609	        -28.48310135	         -1.32527252	         30.80415942	         -7.29855483	          1.81453954	         -7.12836061	          0.08869409	          0.04026879	          0.01000289	          0.18314334	          0.27506919	          0.06795964	          0.07191977	          0.09591340	          0.01822200	          0.01000161	          0.10182043	          0.01000367	          0.01000296	          0.36975964	          0.22404299	          0.01000645	          0.01000164	          0.01507379	          0.33169668	          0.09284274	          0.06333492	          0.01001437	          0.07792782	          0.01000147	          0.01000024	          0.08632936	          0.06729380	          0.04190263	
